<svg 
 xmlns="http://www.w3.org/2000/svg"
 xmlns:xlink="http://www.w3.org/1999/xlink"
 width="8px" height="8px">
<path fill-rule="evenodd"  fill="rgb(255, 255, 255)"
 d="M7.700,7.696 C7.313,8.083 6.684,8.083 6.297,7.696 L3.989,5.388 L1.676,7.700 C1.289,8.088 0.660,8.088 0.273,7.700 C-0.115,7.313 -0.115,6.685 0.273,6.297 L2.585,3.984 L0.273,1.672 C-0.115,1.284 -0.115,0.656 0.273,0.269 C0.660,-0.119 1.289,-0.119 1.676,0.269 L3.989,2.581 L6.297,0.273 C6.684,-0.115 7.312,-0.115 7.700,0.273 C8.087,0.661 8.087,1.289 7.700,1.676 L5.392,3.985 L7.700,6.293 C8.088,6.680 8.088,7.309 7.700,7.696 "/>
</svg>