<svg 
 xmlns="http://www.w3.org/2000/svg"
 xmlns:xlink="http://www.w3.org/1999/xlink"
 width="15px" height="14px">
<path fill-rule="evenodd"  fill="rgb(2, 89, 155)"
 d="M14.616,13.980 L0.396,14.000 C0.396,14.000 0.396,14.000 0.396,14.000 C0.294,14.000 0.196,13.960 0.124,13.888 C0.052,13.816 0.012,13.719 0.011,13.617 L0.000,5.299 C0.000,5.296 0.000,5.294 0.001,5.292 C0.003,5.172 0.060,5.055 0.166,4.981 L2.324,3.492 L2.324,1.912 C2.324,1.700 2.496,1.529 2.708,1.529 L5.167,1.529 L7.283,0.068 C7.414,-0.023 7.589,-0.022 7.720,0.069 L9.822,1.529 L12.292,1.529 C12.504,1.529 12.676,1.700 12.676,1.912 L12.676,3.511 L14.823,5.002 C14.900,5.055 14.951,5.131 14.975,5.215 C14.983,5.234 14.988,5.269 14.988,5.291 L15.000,13.596 C15.000,13.808 14.828,13.980 14.616,13.980 ZM13.470,13.215 L7.506,8.593 L1.520,13.231 L13.470,13.215 ZM2.324,4.425 L1.060,5.298 L2.324,6.170 L2.324,4.425 ZM0.769,6.031 L0.779,12.834 L5.418,9.240 L0.769,6.031 ZM7.500,0.851 L6.519,1.529 L8.476,1.529 L7.500,0.851 ZM11.908,2.296 L3.092,2.296 L3.092,6.700 L6.055,8.746 L7.270,7.804 C7.410,7.696 7.601,7.699 7.736,7.801 C7.738,7.802 7.739,7.803 7.741,7.804 L8.948,8.739 L11.908,6.684 L11.908,2.296 ZM12.676,4.445 L12.676,6.150 L13.904,5.298 L12.676,4.445 ZM14.221,6.012 L9.584,9.232 L14.230,12.833 L14.221,6.012 ZM4.515,6.210 C4.515,5.998 4.687,5.826 4.899,5.826 L10.100,5.826 C10.313,5.826 10.485,5.998 10.485,6.210 C10.485,6.422 10.313,6.594 10.100,6.594 L4.899,6.594 C4.687,6.594 4.515,6.422 4.515,6.210 ZM10.100,4.598 L4.899,4.598 C4.687,4.598 4.515,4.427 4.515,4.215 C4.515,4.003 4.687,3.831 4.899,3.831 L10.100,3.831 C10.313,3.831 10.485,4.003 10.485,4.215 C10.485,4.427 10.313,4.598 10.100,4.598 Z"/>
</svg>