<svg 
 xmlns="http://www.w3.org/2000/svg"
 xmlns:xlink="http://www.w3.org/1999/xlink"
 width="30px" height="30px">
<path fill-rule="evenodd"  fill="rgb(56, 187, 59)"
 d="M29.020,14.180 C28.414,14.284 27.829,13.905 27.682,13.309 C27.033,10.681 25.683,8.296 23.746,6.361 C21.689,4.311 19.145,2.927 16.335,2.327 C15.735,2.199 15.341,1.623 15.426,1.017 L15.426,1.013 C15.521,0.338 16.170,-0.116 16.838,0.026 C20.087,0.720 23.027,2.319 25.407,4.696 C27.649,6.941 29.210,9.699 29.965,12.743 C30.130,13.405 29.693,14.066 29.020,14.180 ZM16.592,6.106 C18.328,6.577 19.901,7.489 21.199,8.786 C22.412,10.003 23.297,11.469 23.792,13.088 C23.999,13.764 23.562,14.469 22.864,14.588 L22.863,14.588 C22.277,14.688 21.712,14.334 21.538,13.766 C21.155,12.518 20.475,11.386 19.539,10.451 C18.534,9.447 17.314,8.742 15.970,8.377 C15.398,8.222 15.031,7.667 15.113,7.080 L15.114,7.076 C15.212,6.373 15.907,5.920 16.592,6.106 ZM9.866,16.275 C11.476,18.247 13.294,20.000 15.463,21.364 C15.929,21.653 16.444,21.866 16.929,22.130 C17.174,22.268 17.344,22.224 17.545,22.017 C18.281,21.263 19.029,20.521 19.778,19.780 C20.759,18.806 21.992,18.806 22.979,19.780 C24.180,20.974 25.382,22.168 26.577,23.368 C27.576,24.373 27.570,25.604 26.564,26.622 C25.885,27.307 25.161,27.960 24.520,28.677 C23.583,29.726 22.413,30.065 21.067,29.990 C19.111,29.883 17.312,29.236 15.577,28.394 C11.721,26.521 8.426,23.927 5.665,20.647 C3.621,18.222 1.935,15.577 0.828,12.599 C0.287,11.160 -0.096,9.684 0.023,8.120 C0.099,7.158 0.457,6.335 1.168,5.663 C1.935,4.935 2.658,4.174 3.413,3.433 C4.394,2.465 5.627,2.465 6.614,3.427 C7.225,4.023 7.822,4.633 8.426,5.236 C9.011,5.827 9.595,6.405 10.180,6.995 C11.212,8.032 11.212,9.238 10.187,10.268 C9.451,11.010 8.721,11.751 7.973,12.474 C7.778,12.668 7.759,12.825 7.860,13.064 C8.357,14.245 9.067,15.294 9.866,16.275 Z"/>
</svg>