<svg 
 xmlns="http://www.w3.org/2000/svg"
 xmlns:xlink="http://www.w3.org/1999/xlink"
 width="16px" height="16px">
<path fill-rule="evenodd"  fill="rgb(255, 255, 255)"
 d="M8.000,10.000 C6.898,10.000 6.000,9.107 6.000,8.000 C6.000,6.898 6.893,6.000 8.000,6.000 C9.107,6.000 10.000,6.894 10.000,8.000 C10.000,9.102 9.102,10.000 8.000,10.000 ZM8.000,4.000 C5.793,4.000 4.000,5.792 4.000,8.000 C4.000,10.208 5.793,12.000 8.000,12.000 C10.208,12.000 12.000,10.208 12.000,8.000 C12.000,5.792 10.208,4.000 8.000,4.000 ZM12.000,5.000 C12.552,5.000 13.000,4.552 13.000,4.000 C13.000,3.448 12.552,3.000 12.000,3.000 C11.448,3.000 11.000,3.448 11.000,4.000 C11.000,4.552 11.448,5.000 12.000,5.000 ZM13.955,10.955 C13.921,11.667 13.802,12.056 13.701,12.311 C13.571,12.650 13.407,12.898 13.152,13.152 C12.898,13.407 12.655,13.565 12.311,13.700 C12.051,13.802 11.667,13.921 10.955,13.955 C10.181,13.989 9.955,14.000 8.000,14.000 C6.045,14.000 5.814,13.994 5.045,13.955 C4.333,13.921 3.944,13.802 3.689,13.700 C3.350,13.571 3.102,13.407 2.847,13.152 C2.593,12.898 2.435,12.656 2.299,12.311 C2.198,12.051 2.079,11.667 2.045,10.955 C2.011,10.181 2.000,9.949 2.000,8.000 C2.000,6.051 2.006,5.813 2.045,5.045 C2.079,4.333 2.198,3.943 2.299,3.689 C2.429,3.350 2.593,3.102 2.847,2.847 C3.102,2.593 3.345,2.435 3.689,2.300 C3.949,2.198 4.333,2.079 5.045,2.045 C5.819,2.011 6.051,2.000 8.000,2.000 C9.949,2.000 10.186,2.006 10.955,2.045 C11.667,2.079 12.057,2.198 12.311,2.300 C12.650,2.429 12.898,2.593 13.152,2.847 C13.407,3.102 13.565,3.345 13.701,3.689 C13.802,3.949 13.921,4.333 13.955,5.045 C13.989,5.819 14.000,6.051 14.000,8.000 C14.000,9.949 13.989,10.187 13.955,10.955 ZM15.580,2.757 C15.376,2.232 15.103,1.787 14.658,1.342 C14.213,0.896 13.768,0.625 13.243,0.420 C12.736,0.223 12.148,0.087 11.301,0.050 C10.448,0.012 10.176,-0.000 8.000,-0.000 C5.824,-0.000 5.552,0.006 4.699,0.050 C3.845,0.087 3.264,0.223 2.757,0.420 C2.232,0.625 1.787,0.896 1.342,1.342 C0.896,1.787 0.624,2.232 0.420,2.757 C0.223,3.264 0.087,3.852 0.050,4.698 C0.012,5.552 -0.000,5.824 -0.000,8.000 C-0.000,10.176 0.006,10.448 0.050,11.301 C0.087,12.155 0.223,12.736 0.420,13.243 C0.624,13.768 0.896,14.213 1.342,14.659 C1.787,15.104 2.232,15.376 2.757,15.580 C3.264,15.778 3.852,15.913 4.699,15.950 C5.552,15.988 5.824,16.000 8.000,16.000 C10.176,16.000 10.448,15.994 11.301,15.950 C12.155,15.913 12.736,15.778 13.243,15.580 C13.768,15.376 14.213,15.104 14.658,14.659 C15.103,14.213 15.376,13.768 15.580,13.243 C15.777,12.736 15.914,12.149 15.951,11.301 C15.988,10.448 16.000,10.176 16.000,8.000 C16.000,5.824 15.994,5.552 15.951,4.698 C15.914,3.845 15.777,3.264 15.580,2.757 Z"/>
</svg>