<svg 
 xmlns="http://www.w3.org/2000/svg"
 xmlns:xlink="http://www.w3.org/1999/xlink"
 width="16px" height="16px">
<path fill-rule="evenodd"  fill="rgb(197, 208, 222)"
 d="M8.000,-0.000 C3.581,-0.000 0.000,3.582 0.000,8.000 C0.000,12.418 3.581,16.000 8.000,16.000 C12.418,16.000 16.000,12.418 16.000,8.000 C16.000,3.582 12.418,-0.000 8.000,-0.000 ZM7.000,4.000 L7.980,4.000 C7.987,4.000 7.993,3.996 8.000,3.996 C8.007,3.996 8.013,4.000 8.020,4.000 L9.000,4.000 L9.000,4.941 C9.001,4.962 9.012,4.980 9.012,5.001 C9.012,5.023 9.001,5.041 9.000,5.062 L9.000,6.000 L8.033,6.000 C8.021,6.001 8.011,6.007 8.000,6.007 C7.988,6.007 7.978,6.001 7.967,6.000 L7.000,6.000 L7.000,5.061 C6.998,5.041 6.987,5.023 6.987,5.001 C6.987,4.980 6.998,4.962 7.000,4.941 L7.000,4.000 ZM9.619,12.006 L6.380,12.006 C6.167,12.006 5.995,11.805 5.995,11.558 C5.995,11.311 6.167,11.109 6.380,11.109 L7.000,11.000 L7.000,8.000 L6.380,7.884 C6.167,7.884 5.995,7.683 5.995,7.436 C5.995,7.189 6.167,6.988 6.380,6.988 L8.894,6.988 C8.971,6.988 8.996,6.956 9.007,6.930 C9.004,6.945 9.000,6.959 9.000,7.000 L9.000,11.000 L9.619,11.109 C9.832,11.109 10.005,11.311 10.005,11.558 C10.005,11.805 9.832,12.006 9.619,12.006 Z"/>
</svg>