<svg 
 xmlns="http://www.w3.org/2000/svg"
 xmlns:xlink="http://www.w3.org/1999/xlink"
 width="203px" height="34px">
<path fill-rule="evenodd"  fill="rgb(255, 255, 255)"
 d="M201.972,32.244 L200.883,32.244 C200.177,32.244 199.833,31.909 199.833,31.221 L199.833,29.237 L192.795,29.237 L192.795,31.221 C192.795,31.909 192.458,32.244 191.766,32.244 L190.656,32.244 C189.969,32.244 189.649,31.919 189.649,31.221 L189.649,27.242 C189.649,26.520 189.960,26.198 190.656,26.198 L191.005,26.198 C191.538,25.713 192.130,24.497 192.130,21.489 L192.130,18.331 C192.130,17.638 192.440,17.330 193.137,17.330 L200.296,17.330 C200.998,17.330 201.325,17.648 201.325,18.331 L201.325,26.198 L201.972,26.198 C202.673,26.198 203.000,26.530 203.000,27.242 L203.000,31.221 C203.000,31.909 202.664,32.244 201.972,32.244 ZM198.092,20.348 L195.275,20.348 L195.275,21.661 C195.275,23.574 195.045,25.096 194.589,26.198 L198.092,26.198 L198.092,20.348 ZM183.802,29.562 C180.446,29.562 178.443,27.813 178.443,24.884 L178.443,21.683 C178.443,18.754 180.446,17.005 183.802,17.005 C187.171,17.005 189.183,18.754 189.183,21.683 L189.183,24.884 C189.183,27.813 187.171,29.562 183.802,29.562 ZM185.951,21.683 C185.951,20.276 184.782,19.980 183.802,19.980 C182.832,19.980 181.675,20.276 181.675,21.683 L181.675,24.884 C181.675,26.292 182.832,26.587 183.802,26.587 C184.605,26.587 185.951,26.366 185.951,24.884 L185.951,21.683 ZM176.230,29.237 L175.055,29.237 C174.363,29.237 174.026,28.903 174.026,28.215 L174.026,20.348 L171.427,20.348 L171.427,21.705 C171.427,24.387 171.056,26.302 170.323,27.394 C169.627,28.454 169.062,28.952 168.002,29.443 C167.879,29.493 167.722,29.539 167.553,29.539 C167.266,29.539 166.946,29.406 166.709,28.935 L166.143,27.810 C165.882,27.323 166.031,26.856 166.547,26.567 C167.043,26.311 167.257,26.182 167.658,25.523 C167.934,25.085 168.260,24.043 168.260,21.553 L168.260,18.331 C168.260,17.648 168.587,17.330 169.289,17.330 L176.230,17.330 C176.932,17.330 177.259,17.648 177.259,18.331 L177.259,28.215 C177.259,28.903 176.922,29.237 176.230,29.237 ZM160.193,29.562 C156.837,29.562 154.834,27.813 154.834,24.884 L154.834,21.683 C154.834,18.754 156.837,17.005 160.193,17.005 C163.562,17.005 165.574,18.754 165.574,21.683 L165.574,24.884 C165.574,27.813 163.562,29.562 160.193,29.562 ZM162.341,21.683 C162.341,20.276 161.173,19.980 160.193,19.980 C159.223,19.980 158.066,20.276 158.066,21.683 L158.066,24.884 C158.066,26.292 159.223,26.587 160.193,26.587 C160.995,26.587 162.341,26.366 162.341,24.884 L162.341,21.683 ZM150.155,21.034 L154.861,27.914 C155.100,28.193 155.169,28.521 155.045,28.794 C154.917,29.076 154.620,29.237 154.232,29.237 L152.708,29.237 C151.785,29.237 151.393,29.167 150.946,28.416 L147.927,23.808 L145.022,28.423 C144.502,29.159 144.211,29.237 143.286,29.237 L141.872,29.237 C141.358,29.237 141.151,28.992 141.073,28.846 C140.993,28.694 140.904,28.374 141.210,27.930 L145.862,21.055 L141.382,14.417 C141.173,14.164 141.114,13.855 141.239,13.595 C141.366,13.329 141.660,13.177 142.046,13.177 L143.504,13.177 C144.450,13.177 144.722,13.294 145.218,13.916 L148.052,18.267 L150.866,13.943 C151.381,13.294 151.643,13.177 152.534,13.177 L154.036,13.177 C154.409,13.177 154.696,13.328 154.821,13.590 C154.945,13.848 154.884,14.167 154.659,14.443 L150.155,21.034 ZM140.045,20.348 L135.807,20.348 L135.807,28.215 C135.807,28.903 135.471,29.237 134.779,29.237 L133.582,29.237 C132.895,29.237 132.575,28.912 132.575,28.215 L132.575,18.331 C132.575,17.638 132.885,17.330 133.582,17.330 L140.045,17.330 C140.747,17.330 141.073,17.648 141.073,18.331 L141.073,19.325 C141.073,20.013 140.737,20.348 140.045,20.348 ZM134.864,13.852 C133.700,13.852 132.878,13.478 132.419,12.730 C132.255,12.473 132.302,12.275 132.572,12.146 L133.019,11.901 C133.301,11.761 133.430,11.796 133.606,12.041 C133.853,12.438 134.264,12.637 134.840,12.637 C135.674,12.637 136.086,12.216 136.086,11.375 L136.086,10.826 C135.604,10.932 135.134,10.990 134.687,10.990 C133.042,10.990 132.231,10.149 132.231,8.642 L132.231,5.407 C132.231,5.138 132.325,5.057 132.596,5.057 L133.242,5.057 C133.512,5.057 133.594,5.138 133.594,5.407 L133.594,8.596 C133.594,9.366 134.017,9.752 134.875,9.752 C135.263,9.752 135.663,9.694 136.086,9.588 L136.086,5.407 C136.086,5.138 136.180,5.057 136.450,5.057 L137.084,5.057 C137.355,5.057 137.449,5.138 137.449,5.407 L137.449,11.305 C137.449,12.906 136.638,13.852 134.864,13.852 ZM125.901,29.562 C125.425,29.562 124.791,29.467 123.970,29.271 L123.970,32.973 C123.970,33.671 123.650,33.996 122.963,33.996 L121.767,33.996 C121.075,33.996 120.738,33.661 120.738,32.973 L120.738,19.217 C120.738,18.364 120.998,17.985 121.808,17.658 C123.045,17.217 124.464,17.005 126.162,17.005 C129.398,17.005 131.108,18.638 131.108,21.726 L131.108,24.689 C131.108,27.877 129.308,29.562 125.901,29.562 ZM127.875,21.791 C127.875,20.554 127.233,20.002 125.792,20.002 C125.132,20.002 124.519,20.074 123.970,20.216 L123.970,26.317 C124.675,26.484 125.252,26.565 125.727,26.565 C127.193,26.565 127.875,25.942 127.875,24.603 L127.875,21.791 ZM130.564,11.107 L129.917,11.107 C129.647,11.107 129.565,11.013 129.565,10.745 L129.565,7.264 C129.565,6.505 129.142,6.119 128.284,6.119 C127.908,6.119 127.532,6.166 127.156,6.271 C127.097,6.295 127.073,6.330 127.073,6.388 L127.073,10.745 C127.073,11.013 126.991,11.107 126.721,11.107 L126.075,11.107 C125.804,11.107 125.710,11.013 125.710,10.745 L125.710,5.944 C125.710,5.571 125.793,5.430 126.169,5.279 C126.838,5.010 127.602,4.881 128.484,4.881 C130.129,4.881 130.928,5.722 130.928,7.229 L130.928,10.745 C130.928,11.013 130.834,11.107 130.564,11.107 ZM121.939,11.282 C120.940,11.282 120.259,11.130 119.883,10.815 C119.507,10.511 119.318,10.032 119.318,9.390 C119.318,8.000 120.071,7.509 121.986,7.509 C122.068,7.509 122.444,7.533 123.114,7.568 L123.114,7.241 C123.114,6.481 122.785,6.084 121.939,6.084 C121.363,6.084 120.952,6.271 120.705,6.645 C120.529,6.890 120.470,6.914 120.200,6.820 L119.730,6.622 C119.471,6.505 119.401,6.330 119.530,6.096 C119.953,5.290 120.764,4.881 121.963,4.881 C123.643,4.881 124.477,5.687 124.477,7.287 L124.477,10.313 C124.477,10.721 124.383,10.838 124.054,10.978 C123.584,11.177 122.879,11.282 121.939,11.282 ZM123.114,8.677 C122.292,8.642 121.868,8.619 121.833,8.619 C120.987,8.619 120.705,8.864 120.705,9.378 C120.705,9.904 120.952,10.161 121.810,10.161 C122.315,10.161 122.703,10.126 122.985,10.067 C123.067,10.032 123.114,9.986 123.114,9.904 L123.114,8.677 ZM115.841,11.282 C115.559,11.282 115.148,11.212 114.607,11.072 L114.607,13.314 C114.607,13.583 114.525,13.677 114.255,13.677 L113.608,13.677 C113.338,13.677 113.244,13.583 113.244,13.314 L113.244,5.886 C113.244,5.512 113.326,5.372 113.702,5.220 C114.325,4.998 115.077,4.881 115.982,4.881 C117.639,4.881 118.462,5.711 118.462,7.241 L118.462,8.841 C118.462,10.464 117.592,11.282 115.841,11.282 ZM117.098,7.276 C117.098,6.505 116.664,6.119 115.782,6.119 C115.383,6.119 115.030,6.166 114.725,6.248 C114.643,6.283 114.607,6.330 114.607,6.400 L114.607,9.869 C115.066,9.986 115.442,10.044 115.747,10.044 C116.652,10.044 117.098,9.624 117.098,8.794 L117.098,7.276 ZM119.336,21.683 L119.336,24.884 C119.336,27.813 117.325,29.562 113.955,29.562 C110.599,29.562 108.596,27.813 108.596,24.884 L108.596,21.683 C108.596,18.754 110.599,17.005 113.955,17.005 C117.325,17.005 119.336,18.754 119.336,21.683 ZM111.829,21.683 L111.829,24.884 C111.829,26.292 112.985,26.587 113.955,26.587 C114.758,26.587 116.104,26.366 116.104,24.884 L116.104,21.683 C116.104,20.276 114.935,19.980 113.955,19.980 C112.985,19.980 111.829,20.276 111.829,21.683 ZM111.600,11.107 L110.954,11.107 C110.684,11.107 110.590,11.013 110.590,10.745 L110.590,7.252 C110.590,6.493 110.214,6.119 109.450,6.119 C109.097,6.119 108.721,6.190 108.310,6.330 C108.392,6.552 108.439,6.844 108.439,7.206 L108.439,10.745 C108.439,11.013 108.345,11.107 108.075,11.107 L107.440,11.107 C107.170,11.107 107.076,11.013 107.076,10.745 L107.076,7.252 C107.076,6.493 106.688,6.119 105.924,6.119 C105.584,6.119 105.278,6.166 104.984,6.260 C104.926,6.283 104.890,6.330 104.890,6.400 L104.890,10.745 C104.890,11.013 104.808,11.107 104.538,11.107 L103.891,11.107 C103.621,11.107 103.527,11.013 103.527,10.745 L103.527,5.944 C103.527,5.571 103.621,5.430 103.985,5.279 C104.632,5.010 105.349,4.881 106.124,4.881 C106.747,4.881 107.229,5.010 107.581,5.267 C108.228,5.010 108.909,4.881 109.650,4.881 C111.189,4.881 111.953,5.652 111.953,7.206 L111.953,10.745 C111.953,11.013 111.871,11.107 111.600,11.107 ZM99.674,11.282 C97.946,11.282 96.971,10.406 96.971,8.946 L96.971,7.217 C96.971,5.757 97.946,4.881 99.674,4.881 C101.413,4.881 102.388,5.757 102.388,7.217 L102.388,8.946 C102.388,10.406 101.413,11.282 99.674,11.282 ZM101.025,7.217 C101.025,6.505 100.531,6.108 99.674,6.108 C98.816,6.108 98.334,6.505 98.334,7.217 L98.334,8.946 C98.334,9.647 98.816,10.056 99.674,10.056 C100.531,10.056 101.025,9.647 101.025,8.946 L101.025,7.217 ZM95.939,29.237 L94.916,29.237 C94.176,29.237 93.887,28.951 93.887,28.215 L93.887,24.300 C93.887,24.046 93.902,23.768 93.931,23.465 C93.890,23.538 93.848,23.609 93.806,23.680 L92.285,26.314 C91.982,26.793 91.760,26.988 91.151,26.988 L90.542,26.988 C89.968,26.988 89.703,26.824 89.405,26.287 L87.886,23.699 C87.842,23.625 87.798,23.549 87.755,23.471 C87.789,23.812 87.806,24.108 87.806,24.365 L87.806,28.215 C87.806,28.922 87.496,29.237 86.799,29.237 L85.820,29.237 C85.080,29.237 84.791,28.951 84.791,28.215 L84.791,18.396 C84.791,17.639 85.108,17.330 85.885,17.330 L86.756,17.330 C87.421,17.330 87.717,17.499 88.023,18.053 L90.867,23.121 L93.671,18.074 C94.002,17.496 94.281,17.330 94.916,17.330 L95.874,17.330 C96.651,17.330 96.967,17.639 96.967,18.396 L96.967,28.215 C96.967,28.922 96.650,29.237 95.939,29.237 ZM93.540,10.091 C94.187,10.091 94.621,9.822 94.821,9.285 C94.927,9.004 95.056,8.958 95.338,9.051 L95.867,9.203 C96.137,9.308 96.220,9.483 96.114,9.729 C95.703,10.768 94.833,11.282 93.493,11.282 C91.754,11.282 90.896,10.418 90.896,8.888 L90.896,7.276 C90.896,5.746 91.801,4.881 93.599,4.881 C94.927,4.881 95.796,5.489 96.114,6.412 C96.208,6.703 96.137,6.832 95.855,6.937 L95.338,7.101 C95.056,7.206 94.927,7.135 94.821,6.855 C94.621,6.330 94.187,6.073 93.540,6.073 C92.683,6.073 92.259,6.458 92.259,7.217 L92.259,8.946 C92.259,9.682 92.706,10.091 93.540,10.091 ZM84.341,8.514 L80.792,8.514 L80.792,8.946 C80.792,9.705 81.274,10.114 82.132,10.114 C82.790,10.114 83.248,9.904 83.518,9.495 C83.706,9.226 83.836,9.203 84.118,9.355 L84.529,9.577 C84.799,9.705 84.846,9.892 84.670,10.161 C84.212,10.908 83.365,11.282 82.132,11.282 C80.298,11.282 79.429,10.313 79.429,8.782 L79.429,7.404 C79.429,5.769 80.381,4.881 82.155,4.881 C83.941,4.881 84.870,5.886 84.870,7.299 L84.870,8.012 C84.870,8.350 84.694,8.514 84.341,8.514 ZM83.507,7.217 C83.507,6.458 83.048,6.026 82.155,6.026 C81.274,6.026 80.792,6.458 80.792,7.217 L80.792,7.474 L83.507,7.474 L83.507,7.217 ZM83.499,23.154 C83.499,23.969 83.013,24.436 82.165,24.436 L75.948,24.436 L75.948,24.884 C75.948,26.086 76.663,26.695 78.074,26.695 C79.164,26.695 79.907,26.372 80.346,25.707 C80.795,25.066 81.235,24.963 81.921,25.332 L82.683,25.743 C83.005,25.895 83.215,26.114 83.291,26.384 C83.370,26.666 83.297,26.983 83.072,27.326 C82.164,28.806 80.481,29.562 78.074,29.562 C74.669,29.562 72.716,27.746 72.716,24.581 L72.716,22.029 C72.716,18.790 74.634,17.005 78.118,17.005 C81.437,17.005 83.499,18.856 83.499,21.834 L83.499,23.154 ZM80.267,21.683 C80.267,20.453 79.544,19.829 78.118,19.829 C77.128,19.829 75.948,20.150 75.948,21.683 L75.948,21.807 L80.267,21.807 L80.267,21.683 ZM76.010,10.091 C76.657,10.091 77.091,9.822 77.291,9.285 C77.397,9.004 77.526,8.958 77.808,9.051 L78.337,9.203 C78.607,9.308 78.690,9.483 78.584,9.729 C78.173,10.768 77.303,11.282 75.963,11.282 C74.224,11.282 73.366,10.418 73.366,8.888 L73.366,7.276 C73.366,5.746 74.271,4.881 76.069,4.881 C77.397,4.881 78.266,5.489 78.584,6.412 C78.678,6.703 78.607,6.832 78.325,6.937 L77.808,7.101 C77.526,7.206 77.397,7.135 77.291,6.855 C77.091,6.330 76.657,6.073 76.010,6.073 C75.152,6.073 74.729,6.458 74.729,7.217 L74.729,8.946 C74.729,9.682 75.176,10.091 76.010,10.091 ZM71.569,4.309 L71.486,4.309 C70.958,4.309 70.770,4.146 70.770,3.597 L70.770,3.491 C70.770,2.966 70.934,2.791 71.486,2.791 L71.569,2.791 C72.121,2.791 72.286,2.966 72.286,3.491 L72.286,3.597 C72.286,4.146 72.121,4.309 71.569,4.309 ZM67.892,10.792 C67.809,11.013 67.645,11.119 67.398,11.119 L67.010,11.119 C66.763,11.119 66.599,11.013 66.517,10.792 L64.354,5.477 C64.225,5.138 64.284,5.057 64.648,5.057 L65.106,5.057 C65.541,5.057 65.659,5.127 65.753,5.419 L66.846,8.222 C67.010,8.654 67.104,9.168 67.163,9.378 L67.175,9.472 L67.233,9.472 C67.233,9.472 67.386,8.736 67.551,8.234 L68.632,5.419 C68.761,5.127 68.855,5.057 69.290,5.057 L69.760,5.057 C70.124,5.057 70.195,5.138 70.065,5.465 L67.892,10.792 ZM63.662,6.119 L63.239,6.119 C62.804,6.119 62.428,6.166 62.122,6.260 C62.040,6.271 62.005,6.318 62.005,6.400 L62.005,10.745 C62.005,11.013 61.922,11.107 61.652,11.107 L61.006,11.107 C60.736,11.107 60.642,11.013 60.642,10.745 L60.642,5.897 C60.642,5.524 60.724,5.384 61.100,5.232 C61.676,5.021 62.404,4.905 63.286,4.881 L63.662,4.881 C63.932,4.881 64.026,4.963 64.026,5.243 L64.026,5.757 C64.026,6.026 63.932,6.119 63.662,6.119 ZM71.851,11.107 L71.204,11.107 C70.934,11.107 70.852,11.013 70.852,10.745 L70.852,5.407 C70.852,5.138 70.934,5.057 71.204,5.057 L71.851,5.057 C72.121,5.057 72.215,5.138 72.215,5.407 L72.215,10.745 C72.215,11.013 72.121,11.107 71.851,11.107 ZM60.906,13.177 L66.673,13.177 C70.059,13.177 72.162,15.235 72.162,18.547 C72.162,21.846 70.059,23.895 66.673,23.895 L63.240,23.895 L63.240,28.150 C63.240,28.882 62.883,29.237 62.147,29.237 L60.906,29.237 C60.156,29.237 59.791,28.882 59.791,28.150 L59.791,14.264 C59.791,13.533 60.156,13.177 60.906,13.177 ZM63.240,20.661 L66.412,20.661 C67.811,20.661 68.582,19.910 68.582,18.547 C68.582,17.190 67.790,16.411 66.412,16.411 L63.240,16.411 L63.240,20.661 ZM59.056,8.514 L55.507,8.514 L55.507,8.946 C55.507,9.705 55.989,10.114 56.847,10.114 C57.505,10.114 57.963,9.904 58.233,9.495 C58.422,9.226 58.551,9.203 58.833,9.355 L59.244,9.577 C59.514,9.705 59.561,9.892 59.385,10.161 C58.927,10.908 58.081,11.282 56.847,11.282 C55.014,11.282 54.144,10.313 54.144,8.782 L54.144,7.404 C54.144,5.769 55.096,4.881 56.870,4.881 C58.657,4.881 59.585,5.886 59.585,7.299 L59.585,8.012 C59.585,8.350 59.409,8.514 59.056,8.514 ZM58.222,7.217 C58.222,6.458 57.764,6.026 56.870,6.026 C55.989,6.026 55.507,6.458 55.507,7.217 L55.507,7.474 L58.222,7.474 L58.222,7.217 ZM43.806,16.081 C43.635,16.081 43.477,16.079 43.309,16.079 C43.268,20.527 43.091,23.872 42.880,23.872 C42.669,23.872 42.493,20.526 42.452,16.075 C37.661,16.047 33.960,15.875 33.960,15.666 C33.960,15.456 37.658,15.285 42.446,15.257 C42.444,14.872 42.443,14.482 42.443,14.085 C42.443,8.681 42.639,4.299 42.880,4.299 C43.122,4.299 43.318,8.681 43.318,14.085 C43.318,14.481 43.317,14.870 43.315,15.253 C43.481,15.253 43.637,15.251 43.806,15.251 C49.243,15.251 53.652,15.437 53.652,15.666 C53.652,15.895 49.243,16.081 43.806,16.081 ZM51.066,7.451 C52.664,7.603 53.463,8.023 53.463,9.332 C53.463,10.511 52.559,11.282 50.925,11.282 C49.550,11.282 48.669,10.815 48.305,9.869 C48.211,9.624 48.293,9.460 48.540,9.378 L49.068,9.215 C49.303,9.121 49.445,9.168 49.550,9.437 C49.727,9.869 50.173,10.079 50.878,10.079 C51.712,10.079 52.124,9.845 52.124,9.390 C52.124,8.876 51.760,8.748 50.714,8.642 C50.161,8.584 49.844,8.537 49.386,8.362 C49.162,8.280 48.974,8.175 48.834,8.047 C48.551,7.801 48.340,7.357 48.340,6.762 C48.340,5.605 49.174,4.881 50.761,4.881 C52.018,4.881 52.864,5.302 53.275,6.131 C53.405,6.365 53.334,6.540 53.087,6.657 L52.559,6.867 C52.288,6.972 52.218,6.949 52.065,6.703 C51.842,6.295 51.419,6.096 50.796,6.096 C50.056,6.096 49.691,6.306 49.691,6.727 C49.691,7.241 50.044,7.357 51.066,7.451 ZM32.494,15.669 C32.494,21.224 37.041,25.744 42.630,25.744 C46.264,25.744 49.475,23.545 51.238,20.962 C51.972,19.886 52.467,20.238 52.698,20.728 L55.470,25.002 C56.313,25.840 56.313,27.212 55.470,28.051 L55.086,28.432 C54.243,29.270 52.863,29.270 52.019,28.432 L48.158,25.958 C47.486,26.318 46.780,26.619 46.038,26.844 L45.070,31.293 C45.070,32.479 44.094,33.448 42.901,33.448 L42.359,33.448 C41.166,33.448 40.190,32.479 40.190,31.293 L39.225,26.857 C38.476,26.632 37.758,26.335 37.079,25.973 L33.240,28.432 C32.397,29.270 31.017,29.270 30.173,28.432 L29.790,28.051 C28.946,27.212 28.946,25.840 29.790,25.002 L32.264,21.186 C31.899,20.512 31.601,19.798 31.374,19.054 L26.911,18.094 C25.718,18.094 24.742,17.125 24.742,15.939 L24.742,15.400 C24.742,14.214 25.718,13.244 26.911,13.244 L31.395,12.280 C31.613,11.520 31.888,10.771 32.203,10.058 L29.790,6.337 C28.946,5.498 28.946,4.126 29.790,3.288 L30.173,2.907 C31.017,2.069 32.397,2.069 33.240,2.907 L37.554,5.670 C37.554,5.670 37.554,5.670 37.554,5.670 C37.913,5.894 38.115,6.198 37.737,6.542 C35.486,7.927 32.494,11.786 32.494,15.669 ZM20.971,15.118 C21.098,15.873 21.150,16.644 21.124,17.422 L25.041,19.755 C26.170,20.136 26.781,21.367 26.398,22.489 L26.223,23.000 C25.840,24.123 24.602,24.729 23.473,24.349 L18.915,23.829 C18.462,24.480 17.960,25.101 17.432,25.676 L18.514,29.970 C19.042,31.034 18.598,32.333 17.528,32.857 L17.042,33.096 C15.972,33.621 14.665,33.180 14.137,32.116 L10.946,28.123 C10.946,28.122 10.946,28.122 10.946,28.122 C10.678,27.795 10.586,27.443 11.055,27.238 C13.633,26.646 17.715,23.947 18.970,20.269 C20.766,15.009 17.920,9.276 12.628,7.491 C9.187,6.331 5.435,7.387 2.930,9.271 C1.887,10.055 1.533,9.564 1.472,9.027 L0.229,4.094 C-0.299,3.031 0.145,1.731 1.214,1.207 L1.701,0.969 C2.770,0.444 4.078,0.885 4.605,1.948 L7.462,5.523 C8.215,5.397 8.981,5.338 9.756,5.362 L12.111,1.458 C12.494,0.335 13.732,-0.272 14.862,0.109 L15.375,0.282 C16.505,0.663 17.116,1.894 16.732,3.016 L16.212,7.525 C16.849,7.978 17.433,8.488 17.958,9.048 L22.388,7.945 C23.458,7.420 24.765,7.861 25.293,8.925 L25.533,9.408 C26.061,10.471 25.617,11.771 24.547,12.295 L20.971,15.118 ZM9.688,15.879 C7.635,11.832 6.171,8.624 6.349,8.534 C6.527,8.444 8.284,11.507 10.380,15.537 C13.766,13.875 16.287,12.770 16.370,12.933 C16.454,13.096 14.076,14.477 10.737,16.227 C10.781,16.314 10.826,16.399 10.871,16.486 C13.176,20.975 14.890,24.693 14.699,24.790 C14.507,24.887 12.483,21.327 10.177,16.838 C10.134,16.753 10.092,16.671 10.048,16.586 C9.510,16.866 8.952,17.152 8.378,17.443 C3.862,19.735 0.118,21.431 0.015,21.232 C-0.087,21.032 3.491,19.013 8.007,16.721 C8.582,16.430 9.144,16.148 9.688,15.879 ZM98.898,13.177 L109.125,13.177 C109.861,13.177 110.219,13.533 110.219,14.264 L110.219,15.324 C110.219,16.056 109.861,16.411 109.125,16.411 L105.736,16.411 L105.736,28.150 C105.736,28.882 105.378,29.237 104.642,29.237 L103.380,29.237 C102.644,29.237 102.286,28.882 102.286,28.150 L102.286,16.411 L98.898,16.411 C98.161,16.411 97.804,16.056 97.804,15.324 L97.804,14.264 C97.804,13.533 98.161,13.177 98.898,13.177 Z"/>
</svg>